<mxfile host="65bd71144e">
    <diagram id="3iIJq1NeaPja7zF421Mq" name="Page-1">
        <mxGraphModel dx="689" dy="697" grid="1" gridSize="10" guides="1" tooltips="1" connect="0" arrows="1" fold="1" page="1" pageScale="1" pageWidth="850" pageHeight="1100" math="0" shadow="0">
            <root>
                <mxCell id="0"/>
                <mxCell id="1" parent="0"/>
                <mxCell id="33" value="" style="shape=table;startSize=0;container=1;collapsible=0;childLayout=tableLayout;fillColor=#6a00ff;fontColor=#ffffff;strokeColor=#FF0080;strokeWidth=5;" vertex="1" parent="1">
                    <mxGeometry x="180" y="60" width="210" height="299.9999999999991" as="geometry"/>
                </mxCell>
                <mxCell id="34" value="" style="shape=partialRectangle;collapsible=0;dropTarget=0;pointerEvents=0;fillColor=#6a00ff;top=0;left=0;bottom=0;right=0;points=[[0,0.5],[1,0.5]];portConstraint=eastwest;fontColor=#ffffff;strokeColor=#3700CC;" vertex="1" parent="33">
                    <mxGeometry width="210" height="60" as="geometry"/>
                </mxCell>
                <mxCell id="49" value="First_name" style="shape=partialRectangle;html=1;whiteSpace=wrap;connectable=0;overflow=hidden;fillColor=#6a00ff;top=0;left=0;bottom=0;right=0;pointerEvents=1;strokeColor=#3700CC;fontColor=#ffffff;" vertex="1" parent="34">
                    <mxGeometry width="80" height="60" as="geometry">
                        <mxRectangle width="80" height="60" as="alternateBounds"/>
                    </mxGeometry>
                </mxCell>
                <mxCell id="35" value="string" style="shape=partialRectangle;html=1;whiteSpace=wrap;connectable=0;overflow=hidden;fillColor=#6a00ff;top=0;left=0;bottom=0;right=0;pointerEvents=1;strokeColor=#3700CC;fontColor=#ffffff;" vertex="1" parent="34">
                    <mxGeometry x="80" width="130" height="60" as="geometry">
                        <mxRectangle width="130" height="60" as="alternateBounds"/>
                    </mxGeometry>
                </mxCell>
                <mxCell id="37" value="" style="shape=partialRectangle;collapsible=0;dropTarget=0;pointerEvents=0;fillColor=#6a00ff;top=0;left=0;bottom=0;right=0;points=[[0,0.5],[1,0.5]];portConstraint=eastwest;fontColor=#ffffff;strokeColor=#3700CC;" vertex="1" parent="33">
                    <mxGeometry y="60" width="210" height="90" as="geometry"/>
                </mxCell>
                <mxCell id="50" value="Last_name" style="shape=partialRectangle;html=1;whiteSpace=wrap;connectable=0;overflow=hidden;fillColor=#6a00ff;top=0;left=0;bottom=0;right=0;pointerEvents=1;fontColor=#ffffff;strokeColor=#3700CC;" vertex="1" parent="37">
                    <mxGeometry width="80" height="90" as="geometry">
                        <mxRectangle width="80" height="90" as="alternateBounds"/>
                    </mxGeometry>
                </mxCell>
                <mxCell id="38" value="string" style="shape=partialRectangle;html=1;whiteSpace=wrap;connectable=0;overflow=hidden;fillColor=#6a00ff;top=0;left=0;bottom=0;right=0;pointerEvents=1;fontColor=#ffffff;strokeColor=#3700CC;" vertex="1" parent="37">
                    <mxGeometry x="80" width="130" height="90" as="geometry">
                        <mxRectangle width="130" height="90" as="alternateBounds"/>
                    </mxGeometry>
                </mxCell>
                <mxCell id="40" value="" style="shape=partialRectangle;collapsible=0;dropTarget=0;pointerEvents=0;fillColor=#6a00ff;top=0;left=0;bottom=0;right=0;points=[[0,0.5],[1,0.5]];portConstraint=eastwest;fontColor=#ffffff;strokeColor=#3700CC;" vertex="1" parent="33">
                    <mxGeometry y="150" width="210" height="80" as="geometry"/>
                </mxCell>
                <mxCell id="51" value="Email" style="shape=partialRectangle;html=1;whiteSpace=wrap;connectable=0;overflow=hidden;fillColor=#6a00ff;top=0;left=0;bottom=0;right=0;pointerEvents=1;fontColor=#ffffff;strokeColor=#3700CC;" vertex="1" parent="40">
                    <mxGeometry width="80" height="80" as="geometry">
                        <mxRectangle width="80" height="80" as="alternateBounds"/>
                    </mxGeometry>
                </mxCell>
                <mxCell id="41" value="string" style="shape=partialRectangle;html=1;whiteSpace=wrap;connectable=0;overflow=hidden;fillColor=#6a00ff;top=0;left=0;bottom=0;right=0;pointerEvents=1;fontColor=#ffffff;strokeColor=#3700CC;" vertex="1" parent="40">
                    <mxGeometry x="80" width="130" height="80" as="geometry">
                        <mxRectangle width="130" height="80" as="alternateBounds"/>
                    </mxGeometry>
                </mxCell>
                <mxCell id="46" style="shape=partialRectangle;collapsible=0;dropTarget=0;pointerEvents=0;fillColor=#6a00ff;top=0;left=0;bottom=0;right=0;points=[[0,0.5],[1,0.5]];portConstraint=eastwest;fontColor=#ffffff;strokeColor=#3700CC;" vertex="1" parent="33">
                    <mxGeometry y="230" width="210" height="70" as="geometry"/>
                </mxCell>
                <mxCell id="52" value="Phone_number" style="shape=partialRectangle;html=1;whiteSpace=wrap;connectable=0;overflow=hidden;fillColor=#6a00ff;top=0;left=0;bottom=0;right=0;pointerEvents=1;fontColor=#ffffff;strokeColor=#3700CC;" vertex="1" parent="46">
                    <mxGeometry width="80" height="70" as="geometry">
                        <mxRectangle width="80" height="70" as="alternateBounds"/>
                    </mxGeometry>
                </mxCell>
                <mxCell id="47" value="string" style="shape=partialRectangle;html=1;whiteSpace=wrap;connectable=0;overflow=hidden;fillColor=#6a00ff;top=0;left=0;bottom=0;right=0;pointerEvents=1;fontColor=#ffffff;strokeColor=#3700CC;" vertex="1" parent="46">
                    <mxGeometry x="80" width="130" height="70" as="geometry">
                        <mxRectangle width="130" height="70" as="alternateBounds"/>
                    </mxGeometry>
                </mxCell>
                <mxCell id="53" value="User" style="whiteSpace=wrap;html=1;fillColor=#6a00ff;fontColor=#ffffff;strokeColor=#FF3333;strokeWidth=10;" vertex="1" parent="1">
                    <mxGeometry x="180" y="15" width="210" height="45" as="geometry"/>
                </mxCell>
                <mxCell id="108" value="Booking" style="shape=table;startSize=40;container=1;collapsible=0;childLayout=tableLayout;fillColor=#008a00;fontColor=#ffffff;strokeColor=#6666FF;strokeWidth=5;" vertex="1" parent="1">
                    <mxGeometry x="380" y="470" width="210" height="372.99999999999943" as="geometry"/>
                </mxCell>
                <mxCell id="109" value="" style="shape=partialRectangle;collapsible=0;dropTarget=0;pointerEvents=0;fillColor=#008a00;top=0;left=0;bottom=0;right=0;points=[[0,0.5],[1,0.5]];portConstraint=eastwest;fontColor=#ffffff;strokeColor=#005700;" vertex="1" parent="108">
                    <mxGeometry y="40" width="210" height="60" as="geometry"/>
                </mxCell>
                <mxCell id="110" value="Departure" style="shape=partialRectangle;html=1;whiteSpace=wrap;connectable=0;overflow=hidden;fillColor=#008a00;top=0;left=0;bottom=0;right=0;pointerEvents=1;fontColor=#ffffff;strokeColor=#005700;" vertex="1" parent="109">
                    <mxGeometry width="80" height="60" as="geometry">
                        <mxRectangle width="80" height="60" as="alternateBounds"/>
                    </mxGeometry>
                </mxCell>
                <mxCell id="111" value="string" style="shape=partialRectangle;html=1;whiteSpace=wrap;connectable=0;overflow=hidden;fillColor=#008a00;top=0;left=0;bottom=0;right=0;pointerEvents=1;fontColor=#ffffff;strokeColor=#005700;" vertex="1" parent="109">
                    <mxGeometry x="80" width="130" height="60" as="geometry">
                        <mxRectangle width="130" height="60" as="alternateBounds"/>
                    </mxGeometry>
                </mxCell>
                <mxCell id="112" value="" style="shape=partialRectangle;collapsible=0;dropTarget=0;pointerEvents=0;fillColor=#008a00;top=0;left=0;bottom=0;right=0;points=[[0,0.5],[1,0.5]];portConstraint=eastwest;fontColor=#ffffff;strokeColor=#005700;" vertex="1" parent="108">
                    <mxGeometry y="100" width="210" height="60" as="geometry"/>
                </mxCell>
                <mxCell id="113" value="Arrival" style="shape=partialRectangle;html=1;whiteSpace=wrap;connectable=0;overflow=hidden;fillColor=#008a00;top=0;left=0;bottom=0;right=0;pointerEvents=1;fontColor=#ffffff;strokeColor=#005700;" vertex="1" parent="112">
                    <mxGeometry width="80" height="60" as="geometry">
                        <mxRectangle width="80" height="60" as="alternateBounds"/>
                    </mxGeometry>
                </mxCell>
                <mxCell id="114" value="string" style="shape=partialRectangle;html=1;whiteSpace=wrap;connectable=0;overflow=hidden;fillColor=#008a00;top=0;left=0;bottom=0;right=0;pointerEvents=1;fontColor=#ffffff;strokeColor=#005700;" vertex="1" parent="112">
                    <mxGeometry x="80" width="130" height="60" as="geometry">
                        <mxRectangle width="130" height="60" as="alternateBounds"/>
                    </mxGeometry>
                </mxCell>
                <mxCell id="115" value="" style="shape=partialRectangle;collapsible=0;dropTarget=0;pointerEvents=0;fillColor=#008a00;top=0;left=0;bottom=0;right=0;points=[[0,0.5],[1,0.5]];portConstraint=eastwest;fontColor=#ffffff;strokeColor=#005700;" vertex="1" parent="108">
                    <mxGeometry y="160" width="210" height="50" as="geometry"/>
                </mxCell>
                <mxCell id="116" value="Date" style="shape=partialRectangle;html=1;whiteSpace=wrap;connectable=0;overflow=hidden;fillColor=#008a00;top=0;left=0;bottom=0;right=0;pointerEvents=1;fontColor=#ffffff;strokeColor=#005700;" vertex="1" parent="115">
                    <mxGeometry width="80" height="50" as="geometry">
                        <mxRectangle width="80" height="50" as="alternateBounds"/>
                    </mxGeometry>
                </mxCell>
                <mxCell id="117" value="string" style="shape=partialRectangle;html=1;whiteSpace=wrap;connectable=0;overflow=hidden;fillColor=#008a00;top=0;left=0;bottom=0;right=0;pointerEvents=1;fontColor=#ffffff;strokeColor=#005700;" vertex="1" parent="115">
                    <mxGeometry x="80" width="130" height="50" as="geometry">
                        <mxRectangle width="130" height="50" as="alternateBounds"/>
                    </mxGeometry>
                </mxCell>
                <mxCell id="118" value="" style="shape=partialRectangle;collapsible=0;dropTarget=0;pointerEvents=0;fillColor=#008a00;top=0;left=0;bottom=0;right=0;points=[[0,0.5],[1,0.5]];portConstraint=eastwest;fontColor=#ffffff;strokeColor=#005700;" vertex="1" parent="108">
                    <mxGeometry y="210" width="210" height="50" as="geometry"/>
                </mxCell>
                <mxCell id="119" value="Time" style="shape=partialRectangle;html=1;whiteSpace=wrap;connectable=0;overflow=hidden;fillColor=#008a00;top=0;left=0;bottom=0;right=0;pointerEvents=1;fontColor=#ffffff;strokeColor=#005700;" vertex="1" parent="118">
                    <mxGeometry width="80" height="50" as="geometry">
                        <mxRectangle width="80" height="50" as="alternateBounds"/>
                    </mxGeometry>
                </mxCell>
                <mxCell id="120" value="string" style="shape=partialRectangle;html=1;whiteSpace=wrap;connectable=0;overflow=hidden;fillColor=#008a00;top=0;left=0;bottom=0;right=0;pointerEvents=1;fontColor=#ffffff;strokeColor=#005700;" vertex="1" parent="118">
                    <mxGeometry x="80" width="130" height="50" as="geometry">
                        <mxRectangle width="130" height="50" as="alternateBounds"/>
                    </mxGeometry>
                </mxCell>
                <mxCell id="121" value="" style="shape=partialRectangle;collapsible=0;dropTarget=0;pointerEvents=0;fillColor=#008a00;top=0;left=0;bottom=0;right=0;points=[[0,0.5],[1,0.5]];portConstraint=eastwest;fontColor=#ffffff;strokeColor=#005700;" vertex="1" parent="108">
                    <mxGeometry y="260" width="210" height="50" as="geometry"/>
                </mxCell>
                <mxCell id="122" value="Return" style="shape=partialRectangle;html=1;whiteSpace=wrap;connectable=0;overflow=hidden;fillColor=#008a00;top=0;left=0;bottom=0;right=0;pointerEvents=1;fontColor=#ffffff;strokeColor=#005700;" vertex="1" parent="121">
                    <mxGeometry width="80" height="50" as="geometry">
                        <mxRectangle width="80" height="50" as="alternateBounds"/>
                    </mxGeometry>
                </mxCell>
                <mxCell id="123" value="string" style="shape=partialRectangle;html=1;whiteSpace=wrap;connectable=0;overflow=hidden;fillColor=#008a00;top=0;left=0;bottom=0;right=0;pointerEvents=1;fontColor=#ffffff;strokeColor=#005700;" vertex="1" parent="121">
                    <mxGeometry x="80" width="130" height="50" as="geometry">
                        <mxRectangle width="130" height="50" as="alternateBounds"/>
                    </mxGeometry>
                </mxCell>
                <mxCell id="124" value="" style="shape=partialRectangle;collapsible=0;dropTarget=0;pointerEvents=0;fillColor=#008a00;top=0;left=0;bottom=0;right=0;points=[[0,0.5],[1,0.5]];portConstraint=eastwest;fontColor=#ffffff;strokeColor=#005700;" vertex="1" parent="108">
                    <mxGeometry y="310" width="210" height="63" as="geometry"/>
                </mxCell>
                <mxCell id="125" value="N.Passengers" style="shape=partialRectangle;html=1;whiteSpace=wrap;connectable=0;overflow=hidden;fillColor=#008a00;top=0;left=0;bottom=0;right=0;pointerEvents=1;fontColor=#ffffff;strokeColor=#005700;" vertex="1" parent="124">
                    <mxGeometry width="80" height="63" as="geometry">
                        <mxRectangle width="80" height="63" as="alternateBounds"/>
                    </mxGeometry>
                </mxCell>
                <mxCell id="126" value="integer" style="shape=partialRectangle;html=1;whiteSpace=wrap;connectable=0;overflow=hidden;fillColor=#008a00;top=0;left=0;bottom=0;right=0;pointerEvents=1;fontColor=#ffffff;strokeColor=#005700;" vertex="1" parent="124">
                    <mxGeometry x="80" width="130" height="63" as="geometry">
                        <mxRectangle width="130" height="63" as="alternateBounds"/>
                    </mxGeometry>
                </mxCell>
                <mxCell id="240" value="" style="shape=table;startSize=0;container=1;collapsible=0;childLayout=tableLayout;fillColor=#e51400;fontColor=#ffffff;strokeColor=#0000FF;gradientColor=#FFFFFF;gradientDirection=west;swimlaneFillColor=#FFFFFF;strokeWidth=6;" vertex="1" parent="1">
                    <mxGeometry x="597" y="60" width="203" height="299.99999999999795" as="geometry"/>
                </mxCell>
                <mxCell id="241" value="" style="shape=partialRectangle;collapsible=0;dropTarget=0;pointerEvents=0;fillColor=#e51400;top=0;left=0;bottom=0;right=0;points=[[0,0.5],[1,0.5]];portConstraint=eastwest;fontColor=#ffffff;strokeColor=#B20000;" vertex="1" parent="240">
                    <mxGeometry width="203" height="50" as="geometry"/>
                </mxCell>
                <mxCell id="242" value="Model" style="shape=partialRectangle;html=1;whiteSpace=wrap;connectable=0;overflow=hidden;fillColor=#e51400;top=0;left=0;bottom=0;right=0;pointerEvents=1;fontColor=#ffffff;strokeColor=#B20000;" vertex="1" parent="241">
                    <mxGeometry width="103" height="50" as="geometry">
                        <mxRectangle width="103" height="50" as="alternateBounds"/>
                    </mxGeometry>
                </mxCell>
                <mxCell id="243" value="string" style="shape=partialRectangle;html=1;whiteSpace=wrap;connectable=0;overflow=hidden;fillColor=#e51400;top=0;left=0;bottom=0;right=0;pointerEvents=1;fontColor=#ffffff;strokeColor=#B20000;" vertex="1" parent="241">
                    <mxGeometry x="103" width="100" height="50" as="geometry">
                        <mxRectangle width="100" height="50" as="alternateBounds"/>
                    </mxGeometry>
                </mxCell>
                <mxCell id="244" value="" style="shape=partialRectangle;collapsible=0;dropTarget=0;pointerEvents=0;fillColor=#e51400;top=0;left=0;bottom=0;right=0;points=[[0,0.5],[1,0.5]];portConstraint=eastwest;fontColor=#ffffff;strokeColor=#B20000;" vertex="1" parent="240">
                    <mxGeometry y="50" width="203" height="70" as="geometry"/>
                </mxCell>
                <mxCell id="245" value="Max.n.passengers" style="shape=partialRectangle;html=1;whiteSpace=wrap;connectable=0;overflow=hidden;fillColor=#e51400;top=0;left=0;bottom=0;right=0;pointerEvents=1;fontColor=#ffffff;strokeColor=#B20000;" vertex="1" parent="244">
                    <mxGeometry width="103" height="70" as="geometry">
                        <mxRectangle width="103" height="70" as="alternateBounds"/>
                    </mxGeometry>
                </mxCell>
                <mxCell id="246" value="integer" style="shape=partialRectangle;html=1;whiteSpace=wrap;connectable=0;overflow=hidden;fillColor=#e51400;top=0;left=0;bottom=0;right=0;pointerEvents=1;fontColor=#ffffff;strokeColor=#B20000;" vertex="1" parent="244">
                    <mxGeometry x="103" width="100" height="70" as="geometry">
                        <mxRectangle width="100" height="70" as="alternateBounds"/>
                    </mxGeometry>
                </mxCell>
                <mxCell id="247" value="" style="shape=partialRectangle;collapsible=0;dropTarget=0;pointerEvents=0;fillColor=#e51400;top=0;left=0;bottom=0;right=0;points=[[0,0.5],[1,0.5]];portConstraint=eastwest;fontColor=#ffffff;strokeColor=#B20000;" vertex="1" parent="240">
                    <mxGeometry y="120" width="203" height="60" as="geometry"/>
                </mxCell>
                <mxCell id="248" value="Max weigh" style="shape=partialRectangle;html=1;whiteSpace=wrap;connectable=0;overflow=hidden;fillColor=#e51400;top=0;left=0;bottom=0;right=0;pointerEvents=1;fontColor=#ffffff;strokeColor=#B20000;" vertex="1" parent="247">
                    <mxGeometry width="103" height="60" as="geometry">
                        <mxRectangle width="103" height="60" as="alternateBounds"/>
                    </mxGeometry>
                </mxCell>
                <mxCell id="249" value="integer" style="shape=partialRectangle;html=1;whiteSpace=wrap;connectable=0;overflow=hidden;fillColor=#e51400;top=0;left=0;bottom=0;right=0;pointerEvents=1;fontColor=#ffffff;strokeColor=#B20000;" vertex="1" parent="247">
                    <mxGeometry x="103" width="100" height="60" as="geometry">
                        <mxRectangle width="100" height="60" as="alternateBounds"/>
                    </mxGeometry>
                </mxCell>
                <mxCell id="250" value="" style="shape=partialRectangle;collapsible=0;dropTarget=0;pointerEvents=0;fillColor=#e51400;top=0;left=0;bottom=0;right=0;points=[[0,0.5],[1,0.5]];portConstraint=eastwest;fontColor=#ffffff;strokeColor=#B20000;" vertex="1" parent="240">
                    <mxGeometry y="180" width="203" height="60" as="geometry"/>
                </mxCell>
                <mxCell id="251" value="Max range" style="shape=partialRectangle;html=1;whiteSpace=wrap;connectable=0;overflow=hidden;fillColor=#e51400;top=0;left=0;bottom=0;right=0;pointerEvents=1;fontColor=#ffffff;strokeColor=#B20000;" vertex="1" parent="250">
                    <mxGeometry width="103" height="60" as="geometry">
                        <mxRectangle width="103" height="60" as="alternateBounds"/>
                    </mxGeometry>
                </mxCell>
                <mxCell id="252" value="integer" style="shape=partialRectangle;html=1;whiteSpace=wrap;connectable=0;overflow=hidden;fillColor=#e51400;top=0;left=0;bottom=0;right=0;pointerEvents=1;fontColor=#ffffff;strokeColor=#B20000;" vertex="1" parent="250">
                    <mxGeometry x="103" width="100" height="60" as="geometry">
                        <mxRectangle width="100" height="60" as="alternateBounds"/>
                    </mxGeometry>
                </mxCell>
                <mxCell id="253" value="" style="shape=partialRectangle;collapsible=0;dropTarget=0;pointerEvents=0;fillColor=#e51400;top=0;left=0;bottom=0;right=0;points=[[0,0.5],[1,0.5]];portConstraint=eastwest;fontColor=#ffffff;strokeColor=#B20000;" vertex="1" parent="240">
                    <mxGeometry y="240" width="203" height="60" as="geometry"/>
                </mxCell>
                <mxCell id="254" value="Speed" style="shape=partialRectangle;html=1;whiteSpace=wrap;connectable=0;overflow=hidden;fillColor=#e51400;top=0;left=0;bottom=0;right=0;pointerEvents=1;fontColor=#ffffff;strokeColor=#B20000;" vertex="1" parent="253">
                    <mxGeometry width="103" height="60" as="geometry">
                        <mxRectangle width="103" height="60" as="alternateBounds"/>
                    </mxGeometry>
                </mxCell>
                <mxCell id="255" value="integer" style="shape=partialRectangle;html=1;whiteSpace=wrap;connectable=0;overflow=hidden;fillColor=#e51400;top=0;left=0;bottom=0;right=0;pointerEvents=1;fontColor=#ffffff;strokeColor=#B20000;perimeterSpacing=3;" vertex="1" parent="253">
                    <mxGeometry x="103" width="100" height="60" as="geometry">
                        <mxRectangle width="100" height="60" as="alternateBounds"/>
                    </mxGeometry>
                </mxCell>
                <mxCell id="256" value="Jet" style="whiteSpace=wrap;html=1;shadow=0;sketch=0;fontSize=17;fillColor=#e51400;fontColor=#ffffff;strokeColor=#3333FF;strokeWidth=10;" vertex="1" parent="1">
                    <mxGeometry x="597" y="19" width="203" height="41" as="geometry"/>
                </mxCell>
                <mxCell id="262" style="edgeStyle=orthogonalEdgeStyle;html=1;exitX=1;exitY=0.5;exitDx=0;exitDy=0;fontSize=17;endArrow=ERmany;endFill=0;" edge="1" parent="1" source="37" target="108">
                    <mxGeometry relative="1" as="geometry">
                        <mxPoint x="450" y="450" as="targetPoint"/>
                        <Array as="points">
                            <mxPoint x="450" y="165"/>
                        </Array>
                    </mxGeometry>
                </mxCell>
                <mxCell id="263" style="edgeStyle=orthogonalEdgeStyle;html=1;exitX=0;exitY=0.5;exitDx=0;exitDy=0;fontSize=17;endArrow=ERmany;endFill=0;entryX=0.75;entryY=0;entryDx=0;entryDy=0;" edge="1" parent="1" source="244" target="108">
                    <mxGeometry relative="1" as="geometry">
                        <mxPoint x="530" y="460" as="targetPoint"/>
                    </mxGeometry>
                </mxCell>
            </root>
        </mxGraphModel>
    </diagram>
</mxfile>